#!OML:ASF F:\VICON\USERDATA\INSTALL\rory3\rory3.ASF
:FULLY-SPECIFIED
:DEGREES
317
root 0.905415 15.1857 3.62428 0.32456 0.427007 1.70534
lowerback 20.9531 1.83515 0.406494
upperback 2.75792 2.85708 3.71386
thorax -8.89115 1.41669 3.02452
lowerneck -13.1457 -5.24109 -11.9512
upperneck 25.5967 -5.45796 3.75195
head 10.8985 -3.18816 2.63527
rclavicle 2.18663e-014 3.18055e-015
rhumerus -28.4502 -22.3159 -71.0024
rradius 30.0243
rwrist 11.3175
rhand -19.7031 6.87162
rfingers 7.12502
rthumb 6.6264 -23.0047
lclavicle 2.18663e-014 3.18055e-015
lhumerus -44.2599 26.6393 57.5743
lradius 37.7661
lwrist 14.8908
lhand -31.3637 29.9283
lfingers 7.12502
lthumb -4.63433 59.8576
rfemur -45.6781 -2.75298 19.8541
rtibia 73.3727
rfoot -17.8304 -8.92034
rtoes 2.18846
lfemur -45.5411 0.57396 -22.4694
ltibia 71.1221
lfoot -18.8961 3.54951
ltoes -1.88257
318
root 0.92818 15.1174 3.70514 0.334967 0.713949 1.92095
lowerback 20.6827 1.79701 0.71778
upperback 2.76687 2.85511 3.55973
thorax -8.71092 1.4026 2.68198
lowerneck -13.512 -5.33951 -11.6396
upperneck 25.5139 -5.63791 3.79318
head 10.9429 -3.2293 2.56558
rclavicle 1.43125e-014 4.77083e-015
rhumerus -28.0509 -24.5555 -70.5521
rradius 28.4803
rwrist 9.00342
rhand -19.5911 4.7966
rfingers 7.12502
rthumb 6.73451 -25.0763
lclavicle 1.43125e-014 4.77083e-015
lhumerus -41.8134 27.6318 59.9638
lradius 35.1133
lwrist 18.322
lhand -31.6846 30.7089
lfingers 7.12502
lthumb -4.94418 60.6312
rfemur -45.6674 -3.33163 19.5002
rtibia 74.1742
rfoot -19.3147 -9.00671
rtoes 1.78896
lfemur -45.4717 0.677866 -22.9768
ltibia 71.8455
lfoot -20.14 3.97726
ltoes -2.03651
319
root 0.942781 15.0475 3.77301 0.571139 0.91496 1.89324
lowerback 21.1969 1.76119 1.05229
upperback 2.13705 2.91603 3.46204
thorax -9.66876 1.41771 2.35541
lowerneck -13.6068 -5.35004 -11.3854
upperneck 25.6795 -5.75442 3.94976
head 11.0263 -3.24209 2.56375
rclavicle -3.97569e-015 -1.43125e-014
rhumerus -28.5446 -24.7275 -70.33
rradius 27.3498
rwrist 5.11036
rhand -20.2313 3.86937
rfingers 7.12502
rthumb 6.11652 -26.0223
lclavicle -3.97569e-015 -1.43125e-014
lhumerus -40.5747 27.2513 62.2949
lradius 33.393
lwrist 20.9419
lhand -29.5876 27.7073
lfingers 7.12502
lthumb -2.91919 57.6671
rfemur -45.8372 -3.66861 19.4981
rtibia 74.812
rfoot -20.7714 -9.5685
rtoes -0.291985
lfemur -45.6046 0.932566 -23.1188
ltibia 72.3558
lfoot -21.3288 4.3262
ltoes -1.95071
320
root 0.950848 15.0057 3.82873 0.858034 1.08222 1.76874
lowerback 20.7389 1.82649 1.50325
upperback 2.12708 3.08006 3.35655
thorax -9.40579 1.47689 1.94349
lowerneck -13.6589 -5.53558 -11.3702
upperneck 25.0343 -6.1947 4.65681
head 10.8524 -3.34763 2.75007
rclavicle 1.11319e-014 -3.18055e-015
rhumerus -28.0133 -24.0664 -70.8836
rradius 26.7316
rwrist 0.847728
rhand -20.9468 3.15729
rfingers 7.12502
rthumb 5.42568 -26.7533
lclavicle 1.11319e-014 -3.18055e-015
lhumerus -38.7129 26.4659 65.2796
lradius 32.5127
lwrist 20.7969
lhand -27.716 25.9545
lfingers 7.12502
lthumb -1.11158 55.9314
rfemur -45.9731 -3.99348 19.7298
rtibia 75.2472
rfoot -21.5559 -10.2248
rtoes -1.95048
lfemur -45.7902 1.16111 -23.0484
ltibia 72.6421
lfoot -22.1315 4.21879
ltoes -1.68386
321
root 0.962594 14.9986 3.88978 1.00827 1.16682 1.82114
lowerback 20.6101 1.858 1.69434
upperback 1.97698 3.14798 3.17058
thorax -9.4818 1.49715 1.61338
lowerneck -13.6642 -5.60865 -11.2652
upperneck 24.5229 -6.52332 5.44371
head 10.7122 -3.39146 2.96759
rclavicle -1.55052e-014 -5.40694e-014
rhumerus -27.8681 -22.0818 -71.7765
rradius 26.9546
rwrist -2.53849
rhand -20.8249 2.94378
rfingers 7.12502
rthumb 5.54342 -26.9637
lclavicle -1.55052e-014 -5.40694e-014
lhumerus -37.7295 25.5644 67.7887
lradius 32.4178
lwrist 18.124
lhand -27.6054 25.5536
lfingers 7.12502
lthumb -1.00479 55.531
rfemur -45.9233 -4.37141 19.7215
rtibia 75.5322
rfoot -21.9419 -10.3736
rtoes -1.84372
lfemur -45.6996 1.3253 -23.1485
ltibia 72.7794
lfoot -22.6353 4.00895
ltoes -1.10835
322
root 0.977388 15.0009 3.95918 1.114 1.1887 1.96872
lowerback 20.4984 1.83408 1.7037
upperback 1.93256 3.09646 2.97391
thorax -9.45598 1.46821 1.40955
lowerneck -14.2128 -5.64128 -11.0937
upperneck 24.168 -6.75041 6.23234
head 10.7268 -3.37736 3.17935
rclavicle -2.74323e-014 4.77083e-015
rhumerus -27.4549 -20.1083 -72.7992
rradius 27.4495
rwrist -3.53716
rhand -19.9069 3.94627
rfingers 7.12502
rthumb 6.42966 -25.9361
lclavicle -2.74323e-014 4.77083e-015
lhumerus -37.2229 23.9662 70.556
lradius 33.6934
lwrist 14.9942
lhand -28.0481 24.8445
lfingers 7.12502
lthumb -1.43237 54.8194
rfemur -45.8654 -4.77936 19.5075
rtibia 75.7374
rfoot -22.2119 -9.84665
rtoes -0.497481
lfemur -45.4869 1.47549 -23.3437
ltibia 72.8559
lfoot -23.013 3.71184
ltoes -0.345832
323
root 0.983845 14.9969 4.02576 1.24237 1.33038 1.97508
lowerback 20.5268 1.70563 1.65499
upperback 1.74122 2.91651 2.87968
thorax -9.67763 1.38108 1.38299
lowerneck -14.432 -5.5993 -10.8186
upperneck 23.6314 -6.86123 6.7769
head 10.5887 -3.33482 3.30497
rclavicle 6.75868e-015 -1.27222e-014
rhumerus -27.3455 -18.1069 -73.7254
rradius 28.3907
rwrist -2.42046
rhand -19.1059 6.31618
rfingers 7.12502
rthumb 7.20297 -23.5412
lclavicle 6.75868e-015 -1.27222e-014
lhumerus -37.6126 22.1773 72.7621
lradius 35.57
lwrist 10.1667
lhand -27.2525 23.3052
lfingers 7.12502
lthumb -0.663933 53.2839
rfemur -45.7331 -5.19224 19.4804
rtibia 75.8771
rfoot -22.3967 -9.45907
rtoes -0.162943
lfemur -45.4037 1.62618 -23.3595
ltibia 72.865
lfoot -23.2527 3.21676
ltoes 0.500904
324
root 0.984486 14.9996 4.08593 1.39985 1.4335 1.88049
lowerback 20.7148 1.59231 1.61516
upperback 1.43871 2.77395 2.84374
thorax -10.1156 1.31114 1.40155
lowerneck -14.3849 -5.56758 -10.5792
upperneck 22.9788 -6.94845 7.14346
head 10.3525 -3.31192 3.3772
rclavicle -1.03368e-014 1.27222e-014
rhumerus -27.7655 -16.2543 -74.3828
rradius 29.9903
rwrist 0.066721
rhand -18.2959 9.74656
rfingers 7.12502
rthumb 7.98475 -20.0826
lclavicle -1.03368e-014 1.27222e-014
lhumerus -37.9053 20.5213 74.9366
lradius 37.5414
lwrist 6.53116
lhand -28.3975 26.6192
lfingers 7.12502
lthumb -1.76983 56.5916
rfemur -45.5456 -5.38687 19.5721
rtibia 75.8517
rfoot -22.7602 -9.14547
rtoes 0.95138
lfemur -45.3539 1.84497 -23.2375
ltibia 72.7396
lfoot -23.4071 2.72117
ltoes 1.15402
325
root 0.994167 15.0423 4.15351 1.48378 1.21068 1.87637
lowerback 20.6319 1.60537 1.60103
upperback 1.39946 2.77279 2.71815
thorax -10.1073 1.30793 1.2733
lowerneck -14.5482 -5.5526 -10.4858
upperneck 22.3071 -7.04015 7.69518
head 10.1665 -3.28069 3.53499
rclavicle -1.90833e-014 7.95139e-015
rhumerus -28.0414 -14.6454 -75.0557
rradius 32.013
rwrist 3.36677
rhand -18.0049 11.5849
rfingers 7.12502
rthumb 8.26564 -18.2334
lclavicle -1.90833e-014 7.95139e-015
lhumerus -37.4959 18.8244 77.3204
lradius 39.4911
lwrist 4.6482
lhand -27.6918 24.7138
lfingers 7.12502
lthumb -1.08823 54.6907
rfemur -45.0806 -5.30328 19.5146
rtibia 75.3984
rfoot -22.951 -9.31746
rtoes 0.978392
lfemur -44.8939 2.25052 -23.2523
ltibia 72.2899
lfoot -23.5966 2.48984
ltoes 1.42138
326
root 1.00372 15.1221 4.23678 1.31211 0.699472 1.74697
lowerback 20.1828 1.71188 1.69054
upperback 1.71218 2.89459 2.61966
thorax -9.50339 1.36467 1.09221
lowerneck -14.7462 -5.56025 -10.4346
upperneck 21.5548 -7.13976 8.25469
head 9.96427 -3.25686 3.69834
rclavicle -1.19271e-014 -3.02153e-014
rhumerus -28.0453 -12.9239 -75.8266
rradius 34.285
rwrist 6.58712
rhand -17.493 10.8889
rfingers 7.12502
rthumb 8.75959 -18.9093
lclavicle -1.19271e-014 -3.02153e-014
lhumerus -36.7721 17.1773 79.5694
lradius 41.1574
lwrist 4.35046
lhand -27.5276 24.5209
lfingers 7.12502
lthumb -0.929697 54.4986
rfemur -44.0461 -5.00936 19.6198
rtibia 74.5267
rfoot -22.9384 -9.76673
rtoes -0.697122
lfemur -43.7896 2.98926 -23.1314
ltibia 71.5135
lfoot -24.0608 2.47072
ltoes -0.0606928
327
root 1.00496 15.2087 4.31693 1.09051 0.323271 1.69681
lowerback 19.6382 1.75727 1.66834
upperback 2.10548 2.90419 2.50217
thorax -8.76485 1.37517 0.991756
lowerneck -14.9727 -5.57483 -10.2496
upperneck 20.8648 -7.22614 8.60213
head 9.77746 -3.24034 3.76473
rclavicle 9.54166e-015 1.59028e-015
rhumerus -27.6784 -11.4928 -76.5909
rradius 35.9398
rwrist 9.42885
rhand -17.158 10.8615
rfingers 7.12502
rthumb 9.08292 -18.923
lclavicle 9.54166e-015 1.59028e-015
lhumerus -35.9658 15.9321 81.3635
lradius 42.4278
lwrist 4.98592
lhand -27.3299 25.4947
lfingers 7.12502
lthumb -0.73871 55.4731
rfemur -42.8753 -4.90087 19.6577
rtibia 73.4403
rfoot -22.8589 -9.85632
rtoes -1.99558
lfemur -42.5442 3.62649 -23.0587
ltibia 70.5347
lfoot -24.3892 2.38159
ltoes -0.968669
328
root 1.00762 15.2913 4.38301 1.02473 0.0772685 1.69063
lowerback 20.0454 1.7924 1.2523
upperback 1.73106 2.9003 2.64592
thorax -9.43037 1.38671 1.37215
lowerneck -14.7962 -5.52492 -10.3248
upperneck 20.8657 -7.14599 8.5588
head 9.73725 -3.21902 3.77605
rclavicle -1.19271e-015 -6.36111e-015
rhumerus -28.1604 -9.68273 -76.7545
rradius 37.1758
rwrist 11.4978
rhand -18.3675 12.8762
rfingers 7.12502
rthumb 7.91569 -16.9556
lclavicle -1.19271e-015 -6.36111e-015
lhumerus -36.5572 14.9099 82.9657
lradius 44.0464
lwrist 6.48735
lhand -26.9418 26.3345
lfingers 7.12502
lthumb -0.363873 56.3139
rfemur -41.9545 -4.96162 19.651
rtibia 72.2875
rfoot -22.546 -9.78311
rtoes -2.21309
lfemur -41.5331 3.9734 -23.0078
ltibia 69.4477
lfoot -24.257 2.23306
ltoes -0.828204
329
root 1.01036 15.3836 4.45419 0.93075 -0.118803 1.71289
lowerback 19.9153 1.78741 1.02097
upperback 1.58453 2.84604 2.6587
thorax -9.53204 1.37093 1.53486
lowerneck -14.534 -5.48066 -10.4931
upperneck 20.8932 -7.11964 8.7591
head 9.70906 -3.20611 3.88416
rclavicle 9.14409e-015 3.18055e-015
rhumerus -28.4795 -8.49351 -76.9727
rradius 38.6417
rwrist 14.0449
rhand -19.3755 13.8865
rfingers 7.12502
rthumb 6.94272 -15.9796
lclavicle 9.14409e-015 3.18055e-015
lhumerus -37.0049 13.9805 84.1872
lradius 45.4884
lwrist 7.96066
lhand -26.5327 25.9844
lfingers 7.12502
lthumb 0.0312169 55.9642
rfemur -40.8762 -5.02071 19.5874
rtibia 71.0795
rfoot -22.3994 -9.43371
rtoes -1.64397
lfemur -40.3848 4.20617 -22.9883
ltibia 68.2538
lfoot -24.3514 2.28637
ltoes -2.53447
330
root 1.01302 15.4828 4.52915 0.830735 -0.130394 1.76612
lowerback 19.5469 1.65005 0.945445
upperback 1.51609 2.6311 2.5465
thorax -9.39658 1.27096 1.52218
lowerneck -14.1739 -5.37392 -10.537
upperneck 20.7768 -7.05034 9.0169
head 9.6038 -3.16059 3.99701
rclavicle 3.77691e-015 9.54166e-015
rhumerus -28.9008 -7.92177 -77.2228
rradius 40.5459
rwrist 17.4481
rhand -19.2479 13.0508
rfingers 7.12502
rthumb 7.06583 -16.8112
lclavicle 3.77691e-015 9.54166e-015
lhumerus -37.2944 13.6799 84.8569
lradius 46.4369
lwrist 8.7603
lhand -25.945 24.0904
lfingers 7.12502
lthumb 0.598899 54.0693
rfemur -39.645 -5.23878 19.4415
rtibia 69.8045
rfoot -22.4305 -8.88289
rtoes -1.02138
lfemur -39.1283 4.19172 -23.0088
ltibia 66.9353
lfoot -24.3766 2.45017
ltoes -4.06582
331
root 1.01462 15.5901 4.59981 0.7763 -0.197903 1.76483
lowerback 19.2285 1.51449 0.856449
upperback 1.45296 2.42366 2.49962
thorax -9.28656 1.17608 1.58394
lowerneck -14.0343 -5.295 -10.5612
upperneck 20.8052 -6.95684 9.04152
head 9.57865 -3.12089 4.02542
rclavicle 1.35174e-014 6.36111e-015
rhumerus -29.3189 -7.41963 -77.4437
rradius 42.6007
rwrist 19.5564
rhand -19.5221 12.7023
rfingers 7.12502
rthumb 6.80115 -17.1685
lclavicle 1.35174e-014 6.36111e-015
lhumerus -37.5408 13.6305 85.4619
lradius 47.3143
lwrist 9.36711
lhand -25.1216 21.6984
lfingers 7.12502
lthumb 1.39417 51.6736
rfemur -38.4689 -5.34385 19.3862
rtibia 68.401
rfoot -22.288 -8.36258
rtoes -0.866351
lfemur -37.911 4.2274 -22.9631
ltibia 65.5065
lfoot -24.088 2.50881
ltoes -4.55995
